# xmcd
#
# Track frame offsets:
#	300
#	24713
#	46768
#	65154
#	80166
#	96558
#	114053
#	130187
#	148214
#	164039
#	181189
#	196311
#	226200
#
# Disc length: 4439 seconds
#
# Revision: 1
# Processed by: cddbd v1.5.2PL0 Copyright (c) Steve Scherf et al.
# Submitted via: audiograbber 1.82.02
#
DISCID=bb11530d
DTITLE=Jan Fedder - Big Balls
DYEAR=2004
DGENRE=Blues
TTITLE0=Schicksal
TTITLE1=Hormone
TTITLE2=Disco
TTITLE3=Liebe
TTITLE4=Money
TTITLE5=Traum
TTITLE6=Gesetze
TTITLE7=Tango
TTITLE8=Gewalt
TTITLE9=Streit
TTITLE10=Leben
TTITLE11=Vagabund
TTITLE12=DatenCD
EXTD=
EXTT0=
EXTT1=
EXTT2=
EXTT3=
EXTT4=
EXTT5=
EXTT6=
EXTT7=
EXTT8=
EXTT9=
EXTT10=
EXTT11=
EXTT12=Data
PLAYORDER=
